<svg width="297" height="97" viewBox="0 0 297 97" fill="none" xmlns="http://www.w3.org/2000/svg">
<path d="M87 73V37.6436L57 20V36.0899L73.4036 45.6541L73.336 64.955L87 73Z" fill="#4285F4"/>
<path d="M69 78V48.6553L43 34V47.6692L56.9759 55.4559L56.9062 71.1654L69 78Z" fill="#669DF6"/>
<path d="M51 83V58.3216L30 46V57.8287L40.9671 64.2008L40.8979 77.0856L51 83Z" fill="#AECBFA"/>
<g filter="url(#filter0_d_0_1)">
<mask id="path-4-outside-1_0_1" maskUnits="userSpaceOnUse" x="95" y="23" width="198" height="66" fill="black">
<rect fill="white" x="95" y="23" width="198" height="66"/>
<path d="M117.832 48.512C118.685 49.1093 119.475 49.6427 120.2 50.112C120.968 50.5387 121.629 51.008 122.184 51.52C123.293 52.544 123.848 53.8027 123.848 55.296V66.176C123.848 68.096 123.165 69.568 121.8 70.592C120.648 71.5307 119.133 72 117.256 72H96.84V60.16H101.448V67.648H118.728V55.168L101.96 44.864C100.467 44.0107 99.2293 43.136 98.248 42.24C97.3093 41.3013 96.84 40.0427 96.84 38.464V30.4C96.84 27.8827 97.4373 26.1547 98.632 25.216C99.656 24.4053 101.427 24 103.944 24H123.272V35.84H118.664V28.352H101.96V38.592L117.832 48.512ZM152.392 39.36C155.72 39.36 157.384 41.0027 157.384 44.288V67.648H161.479V72H149.128V67.648H152.2V43.84L139.464 51.84V67.648H142.6V72H130.248V67.648H134.28V44.288H130.248V40H139.464V46.656L150.088 40C150.77 39.5733 151.538 39.36 152.392 39.36ZM193.055 67.648V72H170.783C168.607 72 167.135 71.5733 166.367 70.72C165.684 69.952 165.343 68.5013 165.343 66.368V64C165.343 62.464 165.535 61.4187 165.919 60.864C166.473 60.0533 167.732 59.0507 169.695 57.856L183.775 49.088V44.352H171.231V48.064H167.135V40H183.135C185.311 40 186.825 40.4693 187.679 41.408C188.575 42.3467 189.023 43.712 189.023 45.504V67.648H193.055ZM183.775 54.208L170.463 62.528V67.648H183.775V54.208ZM207.465 67.648H221.033V43.904L207.465 52.416V67.648ZM198.249 83.648H202.217V44.416H198.185V40H207.465V47.296L218.537 40.32C219.561 39.68 220.649 39.36 221.801 39.36C222.953 39.36 223.956 39.7227 224.809 40.448C225.705 41.1307 226.153 42.1547 226.153 43.52V65.984C226.153 67.9467 225.876 69.2907 225.321 70.016C224.254 71.3387 222.612 72 220.393 72H207.465V83.648H211.689V88H198.249V83.648ZM236.479 65.664C237.375 65.664 238.122 66.0053 238.719 66.688C239.359 67.3707 239.679 68.16 239.679 69.056C239.679 69.952 239.359 70.72 238.719 71.36C238.122 71.9573 237.375 72.256 236.479 72.256C235.583 72.256 234.815 71.9573 234.175 71.36C233.535 70.72 233.215 69.952 233.215 69.056C233.215 68.16 233.535 67.3707 234.175 66.688C234.858 66.0053 235.626 65.664 236.479 65.664ZM272.492 67.648V72H250.22C248.044 72 246.572 71.5733 245.804 70.72C245.121 69.952 244.78 68.5013 244.78 66.368V64C244.78 62.464 244.972 61.4187 245.356 60.864C245.911 60.0533 247.169 59.0507 249.132 57.856L263.212 49.088V44.352H250.668V48.064H246.572V40H262.572C264.748 40 266.263 40.4693 267.116 41.408C268.012 42.3467 268.46 43.712 268.46 45.504V67.648H272.492ZM263.212 54.208L249.9 62.528V67.648H263.212V54.208ZM287.543 67.648H291.703V72H278.263V67.648H282.295V44.352H278.263V40H287.543V67.648ZM284.919 28.224C285.815 28.224 286.561 28.5653 287.159 29.248C287.799 29.888 288.119 30.6773 288.119 31.616C288.119 32.512 287.799 33.28 287.159 33.92C286.561 34.5173 285.793 34.816 284.855 34.816C283.959 34.816 283.191 34.5173 282.551 33.92C281.953 33.28 281.655 32.512 281.655 31.616C281.655 30.6773 281.975 29.888 282.615 29.248C283.255 28.5653 284.023 28.224 284.919 28.224Z"/>
</mask>
<path d="M117.832 48.512C118.685 49.1093 119.475 49.6427 120.2 50.112C120.968 50.5387 121.629 51.008 122.184 51.52C123.293 52.544 123.848 53.8027 123.848 55.296V66.176C123.848 68.096 123.165 69.568 121.8 70.592C120.648 71.5307 119.133 72 117.256 72H96.84V60.16H101.448V67.648H118.728V55.168L101.96 44.864C100.467 44.0107 99.2293 43.136 98.248 42.24C97.3093 41.3013 96.84 40.0427 96.84 38.464V30.4C96.84 27.8827 97.4373 26.1547 98.632 25.216C99.656 24.4053 101.427 24 103.944 24H123.272V35.84H118.664V28.352H101.96V38.592L117.832 48.512ZM152.392 39.36C155.72 39.36 157.384 41.0027 157.384 44.288V67.648H161.479V72H149.128V67.648H152.2V43.84L139.464 51.84V67.648H142.6V72H130.248V67.648H134.28V44.288H130.248V40H139.464V46.656L150.088 40C150.77 39.5733 151.538 39.36 152.392 39.36ZM193.055 67.648V72H170.783C168.607 72 167.135 71.5733 166.367 70.72C165.684 69.952 165.343 68.5013 165.343 66.368V64C165.343 62.464 165.535 61.4187 165.919 60.864C166.473 60.0533 167.732 59.0507 169.695 57.856L183.775 49.088V44.352H171.231V48.064H167.135V40H183.135C185.311 40 186.825 40.4693 187.679 41.408C188.575 42.3467 189.023 43.712 189.023 45.504V67.648H193.055ZM183.775 54.208L170.463 62.528V67.648H183.775V54.208ZM207.465 67.648H221.033V43.904L207.465 52.416V67.648ZM198.249 83.648H202.217V44.416H198.185V40H207.465V47.296L218.537 40.32C219.561 39.68 220.649 39.36 221.801 39.36C222.953 39.36 223.956 39.7227 224.809 40.448C225.705 41.1307 226.153 42.1547 226.153 43.52V65.984C226.153 67.9467 225.876 69.2907 225.321 70.016C224.254 71.3387 222.612 72 220.393 72H207.465V83.648H211.689V88H198.249V83.648ZM236.479 65.664C237.375 65.664 238.122 66.0053 238.719 66.688C239.359 67.3707 239.679 68.16 239.679 69.056C239.679 69.952 239.359 70.72 238.719 71.36C238.122 71.9573 237.375 72.256 236.479 72.256C235.583 72.256 234.815 71.9573 234.175 71.36C233.535 70.72 233.215 69.952 233.215 69.056C233.215 68.16 233.535 67.3707 234.175 66.688C234.858 66.0053 235.626 65.664 236.479 65.664ZM272.492 67.648V72H250.22C248.044 72 246.572 71.5733 245.804 70.72C245.121 69.952 244.78 68.5013 244.78 66.368V64C244.78 62.464 244.972 61.4187 245.356 60.864C245.911 60.0533 247.169 59.0507 249.132 57.856L263.212 49.088V44.352H250.668V48.064H246.572V40H262.572C264.748 40 266.263 40.4693 267.116 41.408C268.012 42.3467 268.46 43.712 268.46 45.504V67.648H272.492ZM263.212 54.208L249.9 62.528V67.648H263.212V54.208ZM287.543 67.648H291.703V72H278.263V67.648H282.295V44.352H278.263V40H287.543V67.648ZM284.919 28.224C285.815 28.224 286.561 28.5653 287.159 29.248C287.799 29.888 288.119 30.6773 288.119 31.616C288.119 32.512 287.799 33.28 287.159 33.92C286.561 34.5173 285.793 34.816 284.855 34.816C283.959 34.816 283.191 34.5173 282.551 33.92C281.953 33.28 281.655 32.512 281.655 31.616C281.655 30.6773 281.975 29.888 282.615 29.248C283.255 28.5653 284.023 28.224 284.919 28.224Z" fill="#4C32B2"/>
<path d="M117.832 48.512L118.405 47.6928L118.384 47.6778L118.362 47.664L117.832 48.512ZM120.2 50.112L119.657 50.9516L119.685 50.9698L119.714 50.9862L120.2 50.112ZM122.184 51.52L122.862 50.7852L122.862 50.7852L122.184 51.52ZM121.8 70.592L121.2 69.792L121.184 69.8041L121.168 69.8168L121.8 70.592ZM96.84 72H95.84V73H96.84V72ZM96.84 60.16V59.16H95.84V60.16H96.84ZM101.448 60.16H102.448V59.16H101.448V60.16ZM101.448 67.648H100.448V68.648H101.448V67.648ZM118.728 67.648V68.648H119.728V67.648H118.728ZM118.728 55.168H119.728V54.6088L119.252 54.316L118.728 55.168ZM101.96 44.864L102.484 44.012L102.47 44.0037L102.456 43.9958L101.96 44.864ZM98.248 42.24L97.5409 42.9471L97.557 42.9632L97.5737 42.9785L98.248 42.24ZM98.632 25.216L99.2498 26.0023L99.2527 26L98.632 25.216ZM123.272 24H124.272V23H123.272V24ZM123.272 35.84V36.84H124.272V35.84H123.272ZM118.664 35.84H117.664V36.84H118.664V35.84ZM118.664 28.352H119.664V27.352H118.664V28.352ZM101.96 28.352V27.352H100.96V28.352H101.96ZM101.96 38.592H100.96V39.1462L101.43 39.44L101.96 38.592ZM117.832 48.512L117.259 49.3312C118.12 49.9342 118.919 50.4745 119.657 50.9516L120.2 50.112L120.743 49.2724C120.03 48.8109 119.251 48.2845 118.405 47.6928L117.832 48.512ZM120.2 50.112L119.714 50.9862C120.424 51.3803 121.018 51.8047 121.506 52.2548L122.184 51.52L122.862 50.7852C122.241 50.2113 121.512 49.697 120.686 49.2378L120.2 50.112ZM122.184 51.52L121.506 52.2548C122.413 53.0919 122.848 54.0852 122.848 55.296H123.848H124.848C124.848 53.5201 124.174 51.9961 122.862 50.7852L122.184 51.52ZM123.848 55.296H122.848V66.176H123.848H124.848V55.296H123.848ZM123.848 66.176H122.848C122.848 67.8264 122.279 68.9824 121.2 69.792L121.8 70.592L122.4 71.392C124.051 70.1536 124.848 68.3656 124.848 66.176H123.848ZM121.8 70.592L121.168 69.8168C120.237 70.5752 118.965 71 117.256 71V72V73C119.302 73 121.059 72.4861 122.432 71.3672L121.8 70.592ZM117.256 72V71H96.84V72V73H117.256V72ZM96.84 72H97.84V60.16H96.84H95.84V72H96.84ZM96.84 60.16V61.16H101.448V60.16V59.16H96.84V60.16ZM101.448 60.16H100.448V67.648H101.448H102.448V60.16H101.448ZM101.448 67.648V68.648H118.728V67.648V66.648H101.448V67.648ZM118.728 67.648H119.728V55.168H118.728H117.728V67.648H118.728ZM118.728 55.168L119.252 54.316L102.484 44.012L101.96 44.864L101.436 45.716L118.204 56.02L118.728 55.168ZM101.96 44.864L102.456 43.9958C101.009 43.1689 99.836 42.3358 98.9223 41.5015L98.248 42.24L97.5737 42.9785C98.6227 43.9362 99.9242 44.8524 101.464 45.7322L101.96 44.864ZM98.248 42.24L98.9551 41.5329C98.2389 40.8167 97.84 39.8313 97.84 38.464H96.84H95.84C95.84 40.254 96.3798 41.786 97.5409 42.9471L98.248 42.24ZM96.84 38.464H97.84V30.4H96.84H95.84V38.464H96.84ZM96.84 30.4H97.84C97.84 27.9909 98.4184 26.6556 99.2498 26.0023L98.632 25.216L98.0142 24.4297C96.4563 25.6537 95.84 27.7745 95.84 30.4H96.84ZM98.632 25.216L99.2527 26C99.9979 25.4101 101.473 25 103.944 25V24V23C101.38 23 99.3141 23.4006 98.0113 24.432L98.632 25.216ZM103.944 24V25H123.272V24V23H103.944V24ZM123.272 24H122.272V35.84H123.272H124.272V24H123.272ZM123.272 35.84V34.84H118.664V35.84V36.84H123.272V35.84ZM118.664 35.84H119.664V28.352H118.664H117.664V35.84H118.664ZM118.664 28.352V27.352H101.96V28.352V29.352H118.664V28.352ZM101.96 28.352H100.96V38.592H101.96H102.96V28.352H101.96ZM101.96 38.592L101.43 39.44L117.302 49.36L117.832 48.512L118.362 47.664L102.49 37.744L101.96 38.592ZM157.384 67.648H156.384V68.648H157.384V67.648ZM161.479 67.648H162.479V66.648H161.479V67.648ZM161.479 72V73H162.479V72H161.479ZM149.128 72H148.128V73H149.128V72ZM149.128 67.648V66.648H148.128V67.648H149.128ZM152.2 67.648V68.648H153.2V67.648H152.2ZM152.2 43.84H153.2V42.0309L151.668 42.9932L152.2 43.84ZM139.464 51.84L138.932 50.9932L138.464 51.2872V51.84H139.464ZM139.464 67.648H138.464V68.648H139.464V67.648ZM142.6 67.648H143.6V66.648H142.6V67.648ZM142.6 72V73H143.6V72H142.6ZM130.248 72H129.248V73H130.248V72ZM130.248 67.648V66.648H129.248V67.648H130.248ZM134.28 67.648V68.648H135.28V67.648H134.28ZM134.28 44.288H135.28V43.288H134.28V44.288ZM130.248 44.288H129.248V45.288H130.248V44.288ZM130.248 40V39H129.248V40H130.248ZM139.464 40H140.464V39H139.464V40ZM139.464 46.656H138.464V48.4626L139.994 47.5034L139.464 46.656ZM150.088 40L149.558 39.152L149.557 39.1526L150.088 40ZM152.392 39.36V40.36C153.905 40.36 154.855 40.7332 155.433 41.3037C156.008 41.8718 156.384 42.8028 156.384 44.288H157.384H158.384C158.384 42.4879 157.927 40.9549 156.838 39.8803C155.752 38.8082 154.206 38.36 152.392 38.36V39.36ZM157.384 44.288H156.384V67.648H157.384H158.384V44.288H157.384ZM157.384 67.648V68.648H161.479V67.648V66.648H157.384V67.648ZM161.479 67.648H160.479V72H161.479H162.479V67.648H161.479ZM161.479 72V71H149.128V72V73H161.479V72ZM149.128 72H150.128V67.648H149.128H148.128V72H149.128ZM149.128 67.648V68.648H152.2V67.648V66.648H149.128V67.648ZM152.2 67.648H153.2V43.84H152.2H151.2V67.648H152.2ZM152.2 43.84L151.668 42.9932L138.932 50.9932L139.464 51.84L139.995 52.6868L152.731 44.6868L152.2 43.84ZM139.464 51.84H138.464V67.648H139.464H140.464V51.84H139.464ZM139.464 67.648V68.648H142.6V67.648V66.648H139.464V67.648ZM142.6 67.648H141.6V72H142.6H143.6V67.648H142.6ZM142.6 72V71H130.248V72V73H142.6V72ZM130.248 72H131.248V67.648H130.248H129.248V72H130.248ZM130.248 67.648V68.648H134.28V67.648V66.648H130.248V67.648ZM134.28 67.648H135.28V44.288H134.28H133.28V67.648H134.28ZM134.28 44.288V43.288H130.248V44.288V45.288H134.28V44.288ZM130.248 44.288H131.248V40H130.248H129.248V44.288H130.248ZM130.248 40V41H139.464V40V39H130.248V40ZM139.464 40H138.464V46.656H139.464H140.464V40H139.464ZM139.464 46.656L139.994 47.5034L150.618 40.8474L150.088 40L149.557 39.1526L138.933 45.8086L139.464 46.656ZM150.088 40L150.618 40.848C151.132 40.5267 151.714 40.36 152.392 40.36V39.36V38.36C151.363 38.36 150.409 38.62 149.558 39.152L150.088 40ZM193.055 67.648H194.055V66.648H193.055V67.648ZM193.055 72V73H194.055V72H193.055ZM166.367 70.72L165.619 71.3844L165.623 71.389L166.367 70.72ZM165.919 60.864L166.741 61.4332L166.744 61.4287L165.919 60.864ZM169.695 57.856L170.214 58.7102L170.223 58.7049L169.695 57.856ZM183.775 49.088L184.303 49.9369L184.775 49.6433V49.088H183.775ZM183.775 44.352H184.775V43.352H183.775V44.352ZM171.231 44.352V43.352H170.231V44.352H171.231ZM171.231 48.064V49.064H172.231V48.064H171.231ZM167.135 48.064H166.135V49.064H167.135V48.064ZM167.135 40V39H166.135V40H167.135ZM187.679 41.408L186.939 42.0807L186.947 42.0897L186.955 42.0985L187.679 41.408ZM189.023 67.648H188.023V68.648H189.023V67.648ZM183.775 54.208H184.775V52.4038L183.245 53.36L183.775 54.208ZM170.463 62.528L169.933 61.68L169.463 61.9738V62.528H170.463ZM170.463 67.648H169.463V68.648H170.463V67.648ZM183.775 67.648V68.648H184.775V67.648H183.775ZM193.055 67.648H192.055V72H193.055H194.055V67.648H193.055ZM193.055 72V71H170.783V72V73H193.055V72ZM170.783 72V71C168.66 71 167.575 70.5684 167.11 70.051L166.367 70.72L165.623 71.389C166.694 72.5783 168.553 73 170.783 73V72ZM166.367 70.72L167.114 70.0556C166.697 69.5868 166.343 68.4772 166.343 66.368H165.343H164.343C164.343 68.5254 164.671 70.3172 165.619 71.3844L166.367 70.72ZM165.343 66.368H166.343V64H165.343H164.343V66.368H165.343ZM165.343 64H166.343C166.343 63.2684 166.389 62.6879 166.47 62.2447C166.554 61.7899 166.663 61.5461 166.741 61.4332L165.919 60.864L165.096 60.2948C164.79 60.7366 164.611 61.2928 164.503 61.8833C164.392 62.4855 164.343 63.1956 164.343 64H165.343ZM165.919 60.864L166.744 61.4287C167.165 60.8125 168.253 59.9043 170.214 58.7102L169.695 57.856L169.175 57.0018C167.211 58.197 165.781 59.2942 165.093 60.2993L165.919 60.864ZM169.695 57.856L170.223 58.7049L184.303 49.9369L183.775 49.088L183.246 48.2391L169.166 57.0071L169.695 57.856ZM183.775 49.088H184.775V44.352H183.775H182.775V49.088H183.775ZM183.775 44.352V43.352H171.231V44.352V45.352H183.775V44.352ZM171.231 44.352H170.231V48.064H171.231H172.231V44.352H171.231ZM171.231 48.064V47.064H167.135V48.064V49.064H171.231V48.064ZM167.135 48.064H168.135V40H167.135H166.135V48.064H167.135ZM167.135 40V41H183.135V40V39H167.135V40ZM183.135 40V41C185.22 41 186.373 41.459 186.939 42.0807L187.679 41.408L188.418 40.7353C187.277 39.4797 185.401 39 183.135 39V40ZM187.679 41.408L186.955 42.0985C187.615 42.79 188.023 43.8699 188.023 45.504H189.023H190.023C190.023 43.5541 189.534 41.9034 188.402 40.7175L187.679 41.408ZM189.023 45.504H188.023V67.648H189.023H190.023V45.504H189.023ZM189.023 67.648V68.648H193.055V67.648V66.648H189.023V67.648ZM183.775 54.208L183.245 53.36L169.933 61.68L170.463 62.528L170.992 63.376L184.305 55.056L183.775 54.208ZM170.463 62.528H169.463V67.648H170.463H171.463V62.528H170.463ZM170.463 67.648V68.648H183.775V67.648V66.648H170.463V67.648ZM183.775 67.648H184.775V54.208H183.775H182.775V67.648H183.775ZM207.465 67.648H206.465V68.648H207.465V67.648ZM221.033 67.648V68.648H222.033V67.648H221.033ZM221.033 43.904H222.033V42.0961L220.502 43.0569L221.033 43.904ZM207.465 52.416L206.934 51.5689L206.465 51.8629V52.416H207.465ZM198.249 83.648V82.648H197.249V83.648H198.249ZM202.217 83.648V84.648H203.217V83.648H202.217ZM202.217 44.416H203.217V43.416H202.217V44.416ZM198.185 44.416H197.185V45.416H198.185V44.416ZM198.185 40V39H197.185V40H198.185ZM207.465 40H208.465V39H207.465V40ZM207.465 47.296H206.465V49.108L207.998 48.1421L207.465 47.296ZM218.537 40.32L218.007 39.472L218.004 39.4739L218.537 40.32ZM224.809 40.448L224.161 41.2099L224.182 41.2272L224.203 41.2434L224.809 40.448ZM225.321 70.016L226.099 70.6438L226.108 70.6337L226.115 70.6235L225.321 70.016ZM207.465 72V71H206.465V72H207.465ZM207.465 83.648H206.465V84.648H207.465V83.648ZM211.689 83.648H212.689V82.648H211.689V83.648ZM211.689 88V89H212.689V88H211.689ZM198.249 88H197.249V89H198.249V88ZM207.465 67.648V68.648H221.033V67.648V66.648H207.465V67.648ZM221.033 67.648H222.033V43.904H221.033H220.033V67.648H221.033ZM221.033 43.904L220.502 43.0569L206.934 51.5689L207.465 52.416L207.996 53.2631L221.564 44.7511L221.033 43.904ZM207.465 52.416H206.465V67.648H207.465H208.465V52.416H207.465ZM198.249 83.648V84.648H202.217V83.648V82.648H198.249V83.648ZM202.217 83.648H203.217V44.416H202.217H201.217V83.648H202.217ZM202.217 44.416V43.416H198.185V44.416V45.416H202.217V44.416ZM198.185 44.416H199.185V40H198.185H197.185V44.416H198.185ZM198.185 40V41H207.465V40V39H198.185V40ZM207.465 40H206.465V47.296H207.465H208.465V40H207.465ZM207.465 47.296L207.998 48.1421L219.07 41.1661L218.537 40.32L218.004 39.4739L206.932 46.4499L207.465 47.296ZM218.537 40.32L219.067 41.168C219.94 40.6223 220.846 40.36 221.801 40.36V39.36V38.36C220.452 38.36 219.182 38.7377 218.007 39.472L218.537 40.32ZM221.801 39.36V40.36C222.723 40.36 223.494 40.643 224.161 41.2099L224.809 40.448L225.457 39.6861C224.417 38.8023 223.183 38.36 221.801 38.36V39.36ZM224.809 40.448L224.203 41.2434C224.797 41.6962 225.153 42.3928 225.153 43.52H226.153H227.153C227.153 41.9165 226.613 40.5651 225.415 39.6526L224.809 40.448ZM226.153 43.52H225.153V65.984H226.153H227.153V43.52H226.153ZM226.153 65.984H225.153C225.153 66.9238 225.086 67.678 224.966 68.2619C224.843 68.8542 224.678 69.2102 224.527 69.4085L225.321 70.016L226.115 70.6235C226.518 70.0965 226.769 69.4178 226.924 68.6661C227.081 67.906 227.153 67.0069 227.153 65.984H226.153ZM225.321 70.016L224.543 69.3882C223.721 70.4075 222.409 71 220.393 71V72V73C222.814 73 224.788 72.2698 226.099 70.6438L225.321 70.016ZM220.393 72V71H207.465V72V73H220.393V72ZM207.465 72H206.465V83.648H207.465H208.465V72H207.465ZM207.465 83.648V84.648H211.689V83.648V82.648H207.465V83.648ZM211.689 83.648H210.689V88H211.689H212.689V83.648H211.689ZM211.689 88V87H198.249V88V89H211.689V88ZM198.249 88H199.249V83.648H198.249H197.249V88H198.249ZM238.719 66.688L237.966 67.3465L237.978 67.3594L237.989 67.3719L238.719 66.688ZM238.719 71.36L239.426 72.0671L239.426 72.0671L238.719 71.36ZM234.175 71.36L233.468 72.0671L233.48 72.0793L233.493 72.0911L234.175 71.36ZM234.175 66.688L233.468 65.9809L233.456 65.9923L233.445 66.0041L234.175 66.688ZM236.479 65.664V66.664C237.083 66.664 237.556 66.8778 237.966 67.3465L238.719 66.688L239.472 66.0295C238.687 65.1329 237.667 64.664 236.479 64.664V65.664ZM238.719 66.688L237.989 67.3719C238.464 67.8783 238.679 68.4262 238.679 69.056H239.679H240.679C240.679 67.8938 240.254 66.863 239.449 66.0041L238.719 66.688ZM239.679 69.056H238.679C238.679 69.6838 238.466 70.1983 238.012 70.6529L238.719 71.36L239.426 72.0671C240.252 71.2417 240.679 70.2202 240.679 69.056H239.679ZM238.719 71.36L238.012 70.6529C237.614 71.0504 237.128 71.256 236.479 71.256V72.256V73.256C237.622 73.256 238.629 72.8642 239.426 72.0671L238.719 71.36ZM236.479 72.256V71.256C235.83 71.256 235.307 71.049 234.857 70.6289L234.175 71.36L233.493 72.0911C234.323 72.8657 235.336 73.256 236.479 73.256V72.256ZM234.175 71.36L234.882 70.6529C234.428 70.1983 234.215 69.6838 234.215 69.056H233.215H232.215C232.215 70.2202 232.642 71.2417 233.468 72.0671L234.175 71.36ZM233.215 69.056H234.215C234.215 68.4262 234.43 67.8783 234.905 67.3719L234.175 66.688L233.445 66.0041C232.64 66.863 232.215 67.8938 232.215 69.056H233.215ZM234.175 66.688L234.882 67.3951C235.404 66.8731 235.927 66.664 236.479 66.664V65.664V64.664C235.325 64.664 234.311 65.1375 233.468 65.9809L234.175 66.688ZM272.492 67.648H273.492V66.648H272.492V67.648ZM272.492 72V73H273.492V72H272.492ZM245.804 70.72L245.057 71.3844L245.061 71.389L245.804 70.72ZM245.356 60.864L246.178 61.4332L246.181 61.4287L245.356 60.864ZM249.132 57.856L249.652 58.7102L249.661 58.7049L249.132 57.856ZM263.212 49.088L263.741 49.9369L264.212 49.6433V49.088H263.212ZM263.212 44.352H264.212V43.352H263.212V44.352ZM250.668 44.352V43.352H249.668V44.352H250.668ZM250.668 48.064V49.064H251.668V48.064H250.668ZM246.572 48.064H245.572V49.064H246.572V48.064ZM246.572 40V39H245.572V40H246.572ZM267.116 41.408L266.376 42.0807L266.384 42.0897L266.393 42.0985L267.116 41.408ZM268.46 67.648H267.46V68.648H268.46V67.648ZM263.212 54.208H264.212V52.4038L262.682 53.36L263.212 54.208ZM249.9 62.528L249.37 61.68L248.9 61.9738V62.528H249.9ZM249.9 67.648H248.9V68.648H249.9V67.648ZM263.212 67.648V68.648H264.212V67.648H263.212ZM272.492 67.648H271.492V72H272.492H273.492V67.648H272.492ZM272.492 72V71H250.22V72V73H272.492V72ZM250.22 72V71C248.098 71 247.013 70.5684 246.547 70.051L245.804 70.72L245.061 71.389C246.131 72.5783 247.99 73 250.22 73V72ZM245.804 70.72L246.551 70.0556C246.135 69.5868 245.78 68.4772 245.78 66.368H244.78H243.78C243.78 68.5254 244.108 70.3172 245.057 71.3844L245.804 70.72ZM244.78 66.368H245.78V64H244.78H243.78V66.368H244.78ZM244.78 64H245.78C245.78 63.2684 245.826 62.6879 245.908 62.2447C245.991 61.7899 246.1 61.5461 246.178 61.4332L245.356 60.864L244.534 60.2948C244.228 60.7366 244.049 61.2928 243.94 61.8833C243.83 62.4855 243.78 63.1956 243.78 64H244.78ZM245.356 60.864L246.181 61.4287C246.603 60.8125 247.69 59.9043 249.652 58.7102L249.132 57.856L248.612 57.0018C246.648 58.197 245.218 59.2942 244.531 60.2993L245.356 60.864ZM249.132 57.856L249.661 58.7049L263.741 49.9369L263.212 49.088L262.683 48.2391L248.603 57.0071L249.132 57.856ZM263.212 49.088H264.212V44.352H263.212H262.212V49.088H263.212ZM263.212 44.352V43.352H250.668V44.352V45.352H263.212V44.352ZM250.668 44.352H249.668V48.064H250.668H251.668V44.352H250.668ZM250.668 48.064V47.064H246.572V48.064V49.064H250.668V48.064ZM246.572 48.064H247.572V40H246.572H245.572V48.064H246.572ZM246.572 40V41H262.572V40V39H246.572V40ZM262.572 40V41C264.657 41 265.811 41.459 266.376 42.0807L267.116 41.408L267.856 40.7353C266.714 39.4797 264.839 39 262.572 39V40ZM267.116 41.408L266.393 42.0985C267.053 42.79 267.46 43.8699 267.46 45.504H268.46H269.46C269.46 43.5541 268.971 41.9034 267.839 40.7175L267.116 41.408ZM268.46 45.504H267.46V67.648H268.46H269.46V45.504H268.46ZM268.46 67.648V68.648H272.492V67.648V66.648H268.46V67.648ZM263.212 54.208L262.682 53.36L249.37 61.68L249.9 62.528L250.43 63.376L263.742 55.056L263.212 54.208ZM249.9 62.528H248.9V67.648H249.9H250.9V62.528H249.9ZM249.9 67.648V68.648H263.212V67.648V66.648H249.9V67.648ZM263.212 67.648H264.212V54.208H263.212H262.212V67.648H263.212ZM287.543 67.648H286.543V68.648H287.543V67.648ZM291.703 67.648H292.703V66.648H291.703V67.648ZM291.703 72V73H292.703V72H291.703ZM278.263 72H277.263V73H278.263V72ZM278.263 67.648V66.648H277.263V67.648H278.263ZM282.295 67.648V68.648H283.295V67.648H282.295ZM282.295 44.352H283.295V43.352H282.295V44.352ZM278.263 44.352H277.263V45.352H278.263V44.352ZM278.263 40V39H277.263V40H278.263ZM287.543 40H288.543V39H287.543V40ZM287.159 29.248L286.406 29.9065L286.428 29.9316L286.451 29.9551L287.159 29.248ZM287.159 33.92L286.451 33.2129L286.451 33.2129L287.159 33.92ZM282.551 33.92L281.819 34.6023L281.843 34.6275L281.868 34.6511L282.551 33.92ZM282.615 29.248L283.322 29.9551L283.333 29.9437L283.344 29.9319L282.615 29.248ZM287.543 67.648V68.648H291.703V67.648V66.648H287.543V67.648ZM291.703 67.648H290.703V72H291.703H292.703V67.648H291.703ZM291.703 72V71H278.263V72V73H291.703V72ZM278.263 72H279.263V67.648H278.263H277.263V72H278.263ZM278.263 67.648V68.648H282.295V67.648V66.648H278.263V67.648ZM282.295 67.648H283.295V44.352H282.295H281.295V67.648H282.295ZM282.295 44.352V43.352H278.263V44.352V45.352H282.295V44.352ZM278.263 44.352H279.263V40H278.263H277.263V44.352H278.263ZM278.263 40V41H287.543V40V39H278.263V40ZM287.543 40H286.543V67.648H287.543H288.543V40H287.543ZM284.919 28.224V29.224C285.522 29.224 285.996 29.4378 286.406 29.9065L287.159 29.248L287.911 28.5895C287.127 27.6929 286.107 27.224 284.919 27.224V28.224ZM287.159 29.248L286.451 29.9551C286.896 30.3999 287.119 30.9316 287.119 31.616H288.119H289.119C289.119 30.4231 288.701 29.3761 287.866 28.5409L287.159 29.248ZM288.119 31.616H287.119C287.119 32.2438 286.906 32.7583 286.451 33.2129L287.159 33.92L287.866 34.6271C288.691 33.8017 289.119 32.7802 289.119 31.616H288.119ZM287.159 33.92L286.451 33.2129C286.063 33.601 285.56 33.816 284.855 33.816V34.816V35.816C286.026 35.816 287.059 35.4336 287.866 34.6271L287.159 33.92ZM284.855 34.816V33.816C284.205 33.816 283.683 33.609 283.233 33.1889L282.551 33.92L281.868 34.6511C282.698 35.4257 283.712 35.816 284.855 35.816V34.816ZM282.551 33.92L283.282 33.2377C282.861 32.7876 282.655 32.2653 282.655 31.616H281.655H280.655C280.655 32.7587 281.045 33.7724 281.819 34.6023L282.551 33.92ZM281.655 31.616H282.655C282.655 30.9316 282.877 30.3999 283.322 29.9551L282.615 29.248L281.907 28.5409C281.072 29.3761 280.655 30.4231 280.655 31.616H281.655ZM282.615 29.248L283.344 29.9319C283.804 29.4408 284.312 29.224 284.919 29.224V28.224V27.224C283.733 27.224 282.705 27.6898 281.885 28.5641L282.615 29.248Z" fill="black" mask="url(#path-4-outside-1_0_1)"/>
<path d="M117.832 48.512L118.405 47.6928L118.384 47.6778L118.362 47.664L117.832 48.512ZM120.2 50.112L119.657 50.9516L119.685 50.9698L119.714 50.9862L120.2 50.112ZM122.184 51.52L122.862 50.7852L122.862 50.7852L122.184 51.52ZM121.8 70.592L121.2 69.792L121.184 69.8041L121.168 69.8168L121.8 70.592ZM96.84 72H95.84V73H96.84V72ZM96.84 60.16V59.16H95.84V60.16H96.84ZM101.448 60.16H102.448V59.16H101.448V60.16ZM101.448 67.648H100.448V68.648H101.448V67.648ZM118.728 67.648V68.648H119.728V67.648H118.728ZM118.728 55.168H119.728V54.6088L119.252 54.316L118.728 55.168ZM101.96 44.864L102.484 44.012L102.47 44.0037L102.456 43.9958L101.96 44.864ZM98.248 42.24L97.5409 42.9471L97.557 42.9632L97.5737 42.9785L98.248 42.24ZM98.632 25.216L99.2498 26.0023L99.2527 26L98.632 25.216ZM123.272 24H124.272V23H123.272V24ZM123.272 35.84V36.84H124.272V35.84H123.272ZM118.664 35.84H117.664V36.84H118.664V35.84ZM118.664 28.352H119.664V27.352H118.664V28.352ZM101.96 28.352V27.352H100.96V28.352H101.96ZM101.96 38.592H100.96V39.1462L101.43 39.44L101.96 38.592ZM117.832 48.512L117.259 49.3312C118.12 49.9342 118.919 50.4745 119.657 50.9516L120.2 50.112L120.743 49.2724C120.03 48.8109 119.251 48.2845 118.405 47.6928L117.832 48.512ZM120.2 50.112L119.714 50.9862C120.424 51.3803 121.018 51.8047 121.506 52.2548L122.184 51.52L122.862 50.7852C122.241 50.2113 121.512 49.697 120.686 49.2378L120.2 50.112ZM122.184 51.52L121.506 52.2548C122.413 53.0919 122.848 54.0852 122.848 55.296H123.848H124.848C124.848 53.5201 124.174 51.9961 122.862 50.7852L122.184 51.52ZM123.848 55.296H122.848V66.176H123.848H124.848V55.296H123.848ZM123.848 66.176H122.848C122.848 67.8264 122.279 68.9824 121.2 69.792L121.8 70.592L122.4 71.392C124.051 70.1536 124.848 68.3656 124.848 66.176H123.848ZM121.8 70.592L121.168 69.8168C120.237 70.5752 118.965 71 117.256 71V72V73C119.302 73 121.059 72.4861 122.432 71.3672L121.8 70.592ZM117.256 72V71H96.84V72V73H117.256V72ZM96.84 72H97.84V60.16H96.84H95.84V72H96.84ZM96.84 60.16V61.16H101.448V60.16V59.16H96.84V60.16ZM101.448 60.16H100.448V67.648H101.448H102.448V60.16H101.448ZM101.448 67.648V68.648H118.728V67.648V66.648H101.448V67.648ZM118.728 67.648H119.728V55.168H118.728H117.728V67.648H118.728ZM118.728 55.168L119.252 54.316L102.484 44.012L101.96 44.864L101.436 45.716L118.204 56.02L118.728 55.168ZM101.96 44.864L102.456 43.9958C101.009 43.1689 99.836 42.3358 98.9223 41.5015L98.248 42.24L97.5737 42.9785C98.6227 43.9362 99.9242 44.8524 101.464 45.7322L101.96 44.864ZM98.248 42.24L98.9551 41.5329C98.2389 40.8167 97.84 39.8313 97.84 38.464H96.84H95.84C95.84 40.254 96.3798 41.786 97.5409 42.9471L98.248 42.24ZM96.84 38.464H97.84V30.4H96.84H95.84V38.464H96.84ZM96.84 30.4H97.84C97.84 27.9909 98.4184 26.6556 99.2498 26.0023L98.632 25.216L98.0142 24.4297C96.4563 25.6537 95.84 27.7745 95.84 30.4H96.84ZM98.632 25.216L99.2527 26C99.9979 25.4101 101.473 25 103.944 25V24V23C101.38 23 99.3141 23.4006 98.0113 24.432L98.632 25.216ZM103.944 24V25H123.272V24V23H103.944V24ZM123.272 24H122.272V35.84H123.272H124.272V24H123.272ZM123.272 35.84V34.84H118.664V35.84V36.84H123.272V35.84ZM118.664 35.84H119.664V28.352H118.664H117.664V35.84H118.664ZM118.664 28.352V27.352H101.96V28.352V29.352H118.664V28.352ZM101.96 28.352H100.96V38.592H101.96H102.96V28.352H101.96ZM101.96 38.592L101.43 39.44L117.302 49.36L117.832 48.512L118.362 47.664L102.49 37.744L101.96 38.592ZM157.384 67.648H156.384V68.648H157.384V67.648ZM161.479 67.648H162.479V66.648H161.479V67.648ZM161.479 72V73H162.479V72H161.479ZM149.128 72H148.128V73H149.128V72ZM149.128 67.648V66.648H148.128V67.648H149.128ZM152.2 67.648V68.648H153.2V67.648H152.2ZM152.2 43.84H153.2V42.0309L151.668 42.9932L152.2 43.84ZM139.464 51.84L138.932 50.9932L138.464 51.2872V51.84H139.464ZM139.464 67.648H138.464V68.648H139.464V67.648ZM142.6 67.648H143.6V66.648H142.6V67.648ZM142.6 72V73H143.6V72H142.6ZM130.248 72H129.248V73H130.248V72ZM130.248 67.648V66.648H129.248V67.648H130.248ZM134.28 67.648V68.648H135.28V67.648H134.28ZM134.28 44.288H135.28V43.288H134.28V44.288ZM130.248 44.288H129.248V45.288H130.248V44.288ZM130.248 40V39H129.248V40H130.248ZM139.464 40H140.464V39H139.464V40ZM139.464 46.656H138.464V48.4626L139.994 47.5034L139.464 46.656ZM150.088 40L149.558 39.152L149.557 39.1526L150.088 40ZM152.392 39.36V40.36C153.905 40.36 154.855 40.7332 155.433 41.3037C156.008 41.8718 156.384 42.8028 156.384 44.288H157.384H158.384C158.384 42.4879 157.927 40.9549 156.838 39.8803C155.752 38.8082 154.206 38.36 152.392 38.36V39.36ZM157.384 44.288H156.384V67.648H157.384H158.384V44.288H157.384ZM157.384 67.648V68.648H161.479V67.648V66.648H157.384V67.648ZM161.479 67.648H160.479V72H161.479H162.479V67.648H161.479ZM161.479 72V71H149.128V72V73H161.479V72ZM149.128 72H150.128V67.648H149.128H148.128V72H149.128ZM149.128 67.648V68.648H152.2V67.648V66.648H149.128V67.648ZM152.2 67.648H153.2V43.84H152.2H151.2V67.648H152.2ZM152.2 43.84L151.668 42.9932L138.932 50.9932L139.464 51.84L139.995 52.6868L152.731 44.6868L152.2 43.84ZM139.464 51.84H138.464V67.648H139.464H140.464V51.84H139.464ZM139.464 67.648V68.648H142.6V67.648V66.648H139.464V67.648ZM142.6 67.648H141.6V72H142.6H143.6V67.648H142.6ZM142.6 72V71H130.248V72V73H142.6V72ZM130.248 72H131.248V67.648H130.248H129.248V72H130.248ZM130.248 67.648V68.648H134.28V67.648V66.648H130.248V67.648ZM134.28 67.648H135.28V44.288H134.28H133.28V67.648H134.28ZM134.28 44.288V43.288H130.248V44.288V45.288H134.28V44.288ZM130.248 44.288H131.248V40H130.248H129.248V44.288H130.248ZM130.248 40V41H139.464V40V39H130.248V40ZM139.464 40H138.464V46.656H139.464H140.464V40H139.464ZM139.464 46.656L139.994 47.5034L150.618 40.8474L150.088 40L149.557 39.1526L138.933 45.8086L139.464 46.656ZM150.088 40L150.618 40.848C151.132 40.5267 151.714 40.36 152.392 40.36V39.36V38.36C151.363 38.36 150.409 38.62 149.558 39.152L150.088 40ZM193.055 67.648H194.055V66.648H193.055V67.648ZM193.055 72V73H194.055V72H193.055ZM166.367 70.72L165.619 71.3844L165.623 71.389L166.367 70.72ZM165.919 60.864L166.741 61.4332L166.744 61.4287L165.919 60.864ZM169.695 57.856L170.214 58.7102L170.223 58.7049L169.695 57.856ZM183.775 49.088L184.303 49.9369L184.775 49.6433V49.088H183.775ZM183.775 44.352H184.775V43.352H183.775V44.352ZM171.231 44.352V43.352H170.231V44.352H171.231ZM171.231 48.064V49.064H172.231V48.064H171.231ZM167.135 48.064H166.135V49.064H167.135V48.064ZM167.135 40V39H166.135V40H167.135ZM187.679 41.408L186.939 42.0807L186.947 42.0897L186.955 42.0985L187.679 41.408ZM189.023 67.648H188.023V68.648H189.023V67.648ZM183.775 54.208H184.775V52.4038L183.245 53.36L183.775 54.208ZM170.463 62.528L169.933 61.68L169.463 61.9738V62.528H170.463ZM170.463 67.648H169.463V68.648H170.463V67.648ZM183.775 67.648V68.648H184.775V67.648H183.775ZM193.055 67.648H192.055V72H193.055H194.055V67.648H193.055ZM193.055 72V71H170.783V72V73H193.055V72ZM170.783 72V71C168.66 71 167.575 70.5684 167.11 70.051L166.367 70.72L165.623 71.389C166.694 72.5783 168.553 73 170.783 73V72ZM166.367 70.72L167.114 70.0556C166.697 69.5868 166.343 68.4772 166.343 66.368H165.343H164.343C164.343 68.5254 164.671 70.3172 165.619 71.3844L166.367 70.72ZM165.343 66.368H166.343V64H165.343H164.343V66.368H165.343ZM165.343 64H166.343C166.343 63.2684 166.389 62.6879 166.47 62.2447C166.554 61.7899 166.663 61.5461 166.741 61.4332L165.919 60.864L165.096 60.2948C164.79 60.7366 164.611 61.2928 164.503 61.8833C164.392 62.4855 164.343 63.1956 164.343 64H165.343ZM165.919 60.864L166.744 61.4287C167.165 60.8125 168.253 59.9043 170.214 58.7102L169.695 57.856L169.175 57.0018C167.211 58.197 165.781 59.2942 165.093 60.2993L165.919 60.864ZM169.695 57.856L170.223 58.7049L184.303 49.9369L183.775 49.088L183.246 48.2391L169.166 57.0071L169.695 57.856ZM183.775 49.088H184.775V44.352H183.775H182.775V49.088H183.775ZM183.775 44.352V43.352H171.231V44.352V45.352H183.775V44.352ZM171.231 44.352H170.231V48.064H171.231H172.231V44.352H171.231ZM171.231 48.064V47.064H167.135V48.064V49.064H171.231V48.064ZM167.135 48.064H168.135V40H167.135H166.135V48.064H167.135ZM167.135 40V41H183.135V40V39H167.135V40ZM183.135 40V41C185.22 41 186.373 41.459 186.939 42.0807L187.679 41.408L188.418 40.7353C187.277 39.4797 185.401 39 183.135 39V40ZM187.679 41.408L186.955 42.0985C187.615 42.79 188.023 43.8699 188.023 45.504H189.023H190.023C190.023 43.5541 189.534 41.9034 188.402 40.7175L187.679 41.408ZM189.023 45.504H188.023V67.648H189.023H190.023V45.504H189.023ZM189.023 67.648V68.648H193.055V67.648V66.648H189.023V67.648ZM183.775 54.208L183.245 53.36L169.933 61.68L170.463 62.528L170.992 63.376L184.305 55.056L183.775 54.208ZM170.463 62.528H169.463V67.648H170.463H171.463V62.528H170.463ZM170.463 67.648V68.648H183.775V67.648V66.648H170.463V67.648ZM183.775 67.648H184.775V54.208H183.775H182.775V67.648H183.775ZM207.465 67.648H206.465V68.648H207.465V67.648ZM221.033 67.648V68.648H222.033V67.648H221.033ZM221.033 43.904H222.033V42.0961L220.502 43.0569L221.033 43.904ZM207.465 52.416L206.934 51.5689L206.465 51.8629V52.416H207.465ZM198.249 83.648V82.648H197.249V83.648H198.249ZM202.217 83.648V84.648H203.217V83.648H202.217ZM202.217 44.416H203.217V43.416H202.217V44.416ZM198.185 44.416H197.185V45.416H198.185V44.416ZM198.185 40V39H197.185V40H198.185ZM207.465 40H208.465V39H207.465V40ZM207.465 47.296H206.465V49.108L207.998 48.1421L207.465 47.296ZM218.537 40.32L218.007 39.472L218.004 39.4739L218.537 40.32ZM224.809 40.448L224.161 41.2099L224.182 41.2272L224.203 41.2434L224.809 40.448ZM225.321 70.016L226.099 70.6438L226.108 70.6337L226.115 70.6235L225.321 70.016ZM207.465 72V71H206.465V72H207.465ZM207.465 83.648H206.465V84.648H207.465V83.648ZM211.689 83.648H212.689V82.648H211.689V83.648ZM211.689 88V89H212.689V88H211.689ZM198.249 88H197.249V89H198.249V88ZM207.465 67.648V68.648H221.033V67.648V66.648H207.465V67.648ZM221.033 67.648H222.033V43.904H221.033H220.033V67.648H221.033ZM221.033 43.904L220.502 43.0569L206.934 51.5689L207.465 52.416L207.996 53.2631L221.564 44.7511L221.033 43.904ZM207.465 52.416H206.465V67.648H207.465H208.465V52.416H207.465ZM198.249 83.648V84.648H202.217V83.648V82.648H198.249V83.648ZM202.217 83.648H203.217V44.416H202.217H201.217V83.648H202.217ZM202.217 44.416V43.416H198.185V44.416V45.416H202.217V44.416ZM198.185 44.416H199.185V40H198.185H197.185V44.416H198.185ZM198.185 40V41H207.465V40V39H198.185V40ZM207.465 40H206.465V47.296H207.465H208.465V40H207.465ZM207.465 47.296L207.998 48.1421L219.07 41.1661L218.537 40.32L218.004 39.4739L206.932 46.4499L207.465 47.296ZM218.537 40.32L219.067 41.168C219.94 40.6223 220.846 40.36 221.801 40.36V39.36V38.36C220.452 38.36 219.182 38.7377 218.007 39.472L218.537 40.32ZM221.801 39.36V40.36C222.723 40.36 223.494 40.643 224.161 41.2099L224.809 40.448L225.457 39.6861C224.417 38.8023 223.183 38.36 221.801 38.36V39.36ZM224.809 40.448L224.203 41.2434C224.797 41.6962 225.153 42.3928 225.153 43.52H226.153H227.153C227.153 41.9165 226.613 40.5651 225.415 39.6526L224.809 40.448ZM226.153 43.52H225.153V65.984H226.153H227.153V43.52H226.153ZM226.153 65.984H225.153C225.153 66.9238 225.086 67.678 224.966 68.2619C224.843 68.8542 224.678 69.2102 224.527 69.4085L225.321 70.016L226.115 70.6235C226.518 70.0965 226.769 69.4178 226.924 68.6661C227.081 67.906 227.153 67.0069 227.153 65.984H226.153ZM225.321 70.016L224.543 69.3882C223.721 70.4075 222.409 71 220.393 71V72V73C222.814 73 224.788 72.2698 226.099 70.6438L225.321 70.016ZM220.393 72V71H207.465V72V73H220.393V72ZM207.465 72H206.465V83.648H207.465H208.465V72H207.465ZM207.465 83.648V84.648H211.689V83.648V82.648H207.465V83.648ZM211.689 83.648H210.689V88H211.689H212.689V83.648H211.689ZM211.689 88V87H198.249V88V89H211.689V88ZM198.249 88H199.249V83.648H198.249H197.249V88H198.249ZM238.719 66.688L237.966 67.3465L237.978 67.3594L237.989 67.3719L238.719 66.688ZM238.719 71.36L239.426 72.0671L239.426 72.0671L238.719 71.36ZM234.175 71.36L233.468 72.0671L233.48 72.0793L233.493 72.0911L234.175 71.36ZM234.175 66.688L233.468 65.9809L233.456 65.9923L233.445 66.0041L234.175 66.688ZM236.479 65.664V66.664C237.083 66.664 237.556 66.8778 237.966 67.3465L238.719 66.688L239.472 66.0295C238.687 65.1329 237.667 64.664 236.479 64.664V65.664ZM238.719 66.688L237.989 67.3719C238.464 67.8783 238.679 68.4262 238.679 69.056H239.679H240.679C240.679 67.8938 240.254 66.863 239.449 66.0041L238.719 66.688ZM239.679 69.056H238.679C238.679 69.6838 238.466 70.1983 238.012 70.6529L238.719 71.36L239.426 72.0671C240.252 71.2417 240.679 70.2202 240.679 69.056H239.679ZM238.719 71.36L238.012 70.6529C237.614 71.0504 237.128 71.256 236.479 71.256V72.256V73.256C237.622 73.256 238.629 72.8642 239.426 72.0671L238.719 71.36ZM236.479 72.256V71.256C235.83 71.256 235.307 71.049 234.857 70.6289L234.175 71.36L233.493 72.0911C234.323 72.8657 235.336 73.256 236.479 73.256V72.256ZM234.175 71.36L234.882 70.6529C234.428 70.1983 234.215 69.6838 234.215 69.056H233.215H232.215C232.215 70.2202 232.642 71.2417 233.468 72.0671L234.175 71.36ZM233.215 69.056H234.215C234.215 68.4262 234.43 67.8783 234.905 67.3719L234.175 66.688L233.445 66.0041C232.64 66.863 232.215 67.8938 232.215 69.056H233.215ZM234.175 66.688L234.882 67.3951C235.404 66.8731 235.927 66.664 236.479 66.664V65.664V64.664C235.325 64.664 234.311 65.1375 233.468 65.9809L234.175 66.688ZM272.492 67.648H273.492V66.648H272.492V67.648ZM272.492 72V73H273.492V72H272.492ZM245.804 70.72L245.057 71.3844L245.061 71.389L245.804 70.72ZM245.356 60.864L246.178 61.4332L246.181 61.4287L245.356 60.864ZM249.132 57.856L249.652 58.7102L249.661 58.7049L249.132 57.856ZM263.212 49.088L263.741 49.9369L264.212 49.6433V49.088H263.212ZM263.212 44.352H264.212V43.352H263.212V44.352ZM250.668 44.352V43.352H249.668V44.352H250.668ZM250.668 48.064V49.064H251.668V48.064H250.668ZM246.572 48.064H245.572V49.064H246.572V48.064ZM246.572 40V39H245.572V40H246.572ZM267.116 41.408L266.376 42.0807L266.384 42.0897L266.393 42.0985L267.116 41.408ZM268.46 67.648H267.46V68.648H268.46V67.648ZM263.212 54.208H264.212V52.4038L262.682 53.36L263.212 54.208ZM249.9 62.528L249.37 61.68L248.9 61.9738V62.528H249.9ZM249.9 67.648H248.9V68.648H249.9V67.648ZM263.212 67.648V68.648H264.212V67.648H263.212ZM272.492 67.648H271.492V72H272.492H273.492V67.648H272.492ZM272.492 72V71H250.22V72V73H272.492V72ZM250.22 72V71C248.098 71 247.013 70.5684 246.547 70.051L245.804 70.72L245.061 71.389C246.131 72.5783 247.99 73 250.22 73V72ZM245.804 70.72L246.551 70.0556C246.135 69.5868 245.78 68.4772 245.78 66.368H244.78H243.78C243.78 68.5254 244.108 70.3172 245.057 71.3844L245.804 70.72ZM244.78 66.368H245.78V64H244.78H243.78V66.368H244.78ZM244.78 64H245.78C245.78 63.2684 245.826 62.6879 245.908 62.2447C245.991 61.7899 246.1 61.5461 246.178 61.4332L245.356 60.864L244.534 60.2948C244.228 60.7366 244.049 61.2928 243.94 61.8833C243.83 62.4855 243.78 63.1956 243.78 64H244.78ZM245.356 60.864L246.181 61.4287C246.603 60.8125 247.69 59.9043 249.652 58.7102L249.132 57.856L248.612 57.0018C246.648 58.197 245.218 59.2942 244.531 60.2993L245.356 60.864ZM249.132 57.856L249.661 58.7049L263.741 49.9369L263.212 49.088L262.683 48.2391L248.603 57.0071L249.132 57.856ZM263.212 49.088H264.212V44.352H263.212H262.212V49.088H263.212ZM263.212 44.352V43.352H250.668V44.352V45.352H263.212V44.352ZM250.668 44.352H249.668V48.064H250.668H251.668V44.352H250.668ZM250.668 48.064V47.064H246.572V48.064V49.064H250.668V48.064ZM246.572 48.064H247.572V40H246.572H245.572V48.064H246.572ZM246.572 40V41H262.572V40V39H246.572V40ZM262.572 40V41C264.657 41 265.811 41.459 266.376 42.0807L267.116 41.408L267.856 40.7353C266.714 39.4797 264.839 39 262.572 39V40ZM267.116 41.408L266.393 42.0985C267.053 42.79 267.46 43.8699 267.46 45.504H268.46H269.46C269.46 43.5541 268.971 41.9034 267.839 40.7175L267.116 41.408ZM268.46 45.504H267.46V67.648H268.46H269.46V45.504H268.46ZM268.46 67.648V68.648H272.492V67.648V66.648H268.46V67.648ZM263.212 54.208L262.682 53.36L249.37 61.68L249.9 62.528L250.43 63.376L263.742 55.056L263.212 54.208ZM249.9 62.528H248.9V67.648H249.9H250.9V62.528H249.9ZM249.9 67.648V68.648H263.212V67.648V66.648H249.9V67.648ZM263.212 67.648H264.212V54.208H263.212H262.212V67.648H263.212ZM287.543 67.648H286.543V68.648H287.543V67.648ZM291.703 67.648H292.703V66.648H291.703V67.648ZM291.703 72V73H292.703V72H291.703ZM278.263 72H277.263V73H278.263V72ZM278.263 67.648V66.648H277.263V67.648H278.263ZM282.295 67.648V68.648H283.295V67.648H282.295ZM282.295 44.352H283.295V43.352H282.295V44.352ZM278.263 44.352H277.263V45.352H278.263V44.352ZM278.263 40V39H277.263V40H278.263ZM287.543 40H288.543V39H287.543V40ZM287.159 29.248L286.406 29.9065L286.428 29.9316L286.451 29.9551L287.159 29.248ZM287.159 33.92L286.451 33.2129L286.451 33.2129L287.159 33.92ZM282.551 33.92L281.819 34.6023L281.843 34.6275L281.868 34.6511L282.551 33.92ZM282.615 29.248L283.322 29.9551L283.333 29.9437L283.344 29.9319L282.615 29.248ZM287.543 67.648V68.648H291.703V67.648V66.648H287.543V67.648ZM291.703 67.648H290.703V72H291.703H292.703V67.648H291.703ZM291.703 72V71H278.263V72V73H291.703V72ZM278.263 72H279.263V67.648H278.263H277.263V72H278.263ZM278.263 67.648V68.648H282.295V67.648V66.648H278.263V67.648ZM282.295 67.648H283.295V44.352H282.295H281.295V67.648H282.295ZM282.295 44.352V43.352H278.263V44.352V45.352H282.295V44.352ZM278.263 44.352H279.263V40H278.263H277.263V44.352H278.263ZM278.263 40V41H287.543V40V39H278.263V40ZM287.543 40H286.543V67.648H287.543H288.543V40H287.543ZM284.919 28.224V29.224C285.522 29.224 285.996 29.4378 286.406 29.9065L287.159 29.248L287.911 28.5895C287.127 27.6929 286.107 27.224 284.919 27.224V28.224ZM287.159 29.248L286.451 29.9551C286.896 30.3999 287.119 30.9316 287.119 31.616H288.119H289.119C289.119 30.4231 288.701 29.3761 287.866 28.5409L287.159 29.248ZM288.119 31.616H287.119C287.119 32.2438 286.906 32.7583 286.451 33.2129L287.159 33.92L287.866 34.6271C288.691 33.8017 289.119 32.7802 289.119 31.616H288.119ZM287.159 33.92L286.451 33.2129C286.063 33.601 285.56 33.816 284.855 33.816V34.816V35.816C286.026 35.816 287.059 35.4336 287.866 34.6271L287.159 33.92ZM284.855 34.816V33.816C284.205 33.816 283.683 33.609 283.233 33.1889L282.551 33.92L281.868 34.6511C282.698 35.4257 283.712 35.816 284.855 35.816V34.816ZM282.551 33.92L283.282 33.2377C282.861 32.7876 282.655 32.2653 282.655 31.616H281.655H280.655C280.655 32.7587 281.045 33.7724 281.819 34.6023L282.551 33.92ZM281.655 31.616H282.655C282.655 30.9316 282.877 30.3999 283.322 29.9551L282.615 29.248L281.907 28.5409C281.072 29.3761 280.655 30.4231 280.655 31.616H281.655ZM282.615 29.248L283.344 29.9319C283.804 29.4408 284.312 29.224 284.919 29.224V28.224V27.224C283.733 27.224 282.705 27.6898 281.885 28.5641L282.615 29.248Z" fill="black" fill-opacity="0.2" mask="url(#path-4-outside-1_0_1)"/>
</g>
<defs>
<filter id="filter0_d_0_1" x="91.84" y="23" width="204.863" height="74" filterUnits="userSpaceOnUse" color-interpolation-filters="sRGB">
<feFlood flood-opacity="0" result="BackgroundImageFix"/>
<feColorMatrix in="SourceAlpha" type="matrix" values="0 0 0 0 0 0 0 0 0 0 0 0 0 0 0 0 0 0 127 0" result="hardAlpha"/>
<feOffset dy="4"/>
<feGaussianBlur stdDeviation="2"/>
<feComposite in2="hardAlpha" operator="out"/>
<feColorMatrix type="matrix" values="0 0 0 0 0 0 0 0 0 0 0 0 0 0 0 0 0 0 0.25 0"/>
<feBlend mode="normal" in2="BackgroundImageFix" result="effect1_dropShadow_0_1"/>
<feBlend mode="normal" in="SourceGraphic" in2="effect1_dropShadow_0_1" result="shape"/>
</filter>
</defs>
</svg>
